<?xml version="1.0" encoding="UTF-8" standalone="yes"?><svg xmlns="http://www.w3.org/2000/svg" xmlns:xlink="http://www.w3.org/1999/xlink" height="466px" style="width:842px;height:466px;" version="1.1" viewBox="0 0 842 466" width="842px"><defs><filter height="300%" id="f1" width="300%" x="-1" y="-1"><feGaussianBlur result="blurOut" stdDeviation="2.0"/><feColorMatrix in="blurOut" result="blurOut2" type="matrix" values="0 0 0 0 0 0 0 0 0 0 0 0 0 0 0 0 0 0 .4 0"/><feOffset dx="4.0" dy="4.0" in="blurOut2" result="blurOut3"/><feBlend in="SourceGraphic" in2="blurOut3" mode="normal"/></filter></defs><g><text fill="#000000" font-family="sans-serif" font-size="14" font-weight="bold" lengthAdjust="spacingAndGlyphs" textLength="191" x="327" y="23.5352">sd04 decrypt (server-side)</text><rect fill="#FFFFFF" filter="url(#f1)" height="309.2832" style="stroke: #A80036; stroke-width: 1.0;" width="10" x="363" y="99.9766"/><rect fill="#FFFFFF" filter="url(#f1)" height="29.3105" style="stroke: #A80036; stroke-width: 1.0;" width="10" x="540" y="129.2871"/><rect fill="#FFFFFF" filter="url(#f1)" height="29.3105" style="stroke: #A80036; stroke-width: 1.0;" width="10" x="790" y="292.0176"/><rect fill="#FFFFFF" filter="url(#f1)" height="29.3105" style="stroke: #A80036; stroke-width: 1.0;" width="10" x="790" y="350.6387"/><rect fill="#FEFECE" filter="url(#f1)" height="30.4883" style="stroke: #A80036; stroke-width: 1.5;" width="112" x="627" y="166.9082"/><text fill="#000000" font-family="sans-serif" font-size="14" lengthAdjust="spacingAndGlyphs" textLength="98" x="634" y="187.4434">SecretKeySpec</text><line style="stroke: #A80036; stroke-width: 1.0; stroke-dasharray: 5.0,5.0;" x1="367.5" x2="367.5" y1="68.9766" y2="427.5703"/><line style="stroke: #A80036; stroke-width: 1.0; stroke-dasharray: 5.0,5.0;" x1="545" x2="545" y1="68.9766" y2="427.5703"/><line style="stroke: #A80036; stroke-width: 1.0; stroke-dasharray: 5.0,5.0;" x1="685" x2="685" y1="199.6523" y2="427.5703"/><line style="stroke: #A80036; stroke-width: 1.0; stroke-dasharray: 5.0,5.0;" x1="795" x2="795" y1="68.9766" y2="427.5703"/><rect fill="#FEFECE" filter="url(#f1)" height="30.4883" style="stroke: #A80036; stroke-width: 1.5;" width="141" x="295.5" y="33.4883"/><text fill="#000000" font-family="sans-serif" font-size="14" lengthAdjust="spacingAndGlyphs" textLength="127" x="302.5" y="54.0234">WebAppController</text><rect fill="#FEFECE" filter="url(#f1)" height="30.4883" style="stroke: #A80036; stroke-width: 1.5;" width="141" x="295.5" y="426.5703"/><text fill="#000000" font-family="sans-serif" font-size="14" lengthAdjust="spacingAndGlyphs" textLength="127" x="302.5" y="447.1055">WebAppController</text><rect fill="#FEFECE" filter="url(#f1)" height="30.4883" style="stroke: #A80036; stroke-width: 1.5;" width="140" x="473" y="33.4883"/><text fill="#000000" font-family="sans-serif" font-size="14" lengthAdjust="spacingAndGlyphs" textLength="126" x="480" y="54.0234">TranslationService</text><rect fill="#FEFECE" filter="url(#f1)" height="30.4883" style="stroke: #A80036; stroke-width: 1.5;" width="140" x="473" y="426.5703"/><text fill="#000000" font-family="sans-serif" font-size="14" lengthAdjust="spacingAndGlyphs" textLength="126" x="480" y="447.1055">TranslationService</text><rect fill="#FEFECE" filter="url(#f1)" height="30.4883" style="stroke: #A80036; stroke-width: 1.5;" width="112" x="627" y="426.5703"/><text fill="#000000" font-family="sans-serif" font-size="14" lengthAdjust="spacingAndGlyphs" textLength="98" x="634" y="447.1055">SecretKeySpec</text><rect fill="#FEFECE" filter="url(#f1)" height="30.4883" style="stroke: #A80036; stroke-width: 1.5;" width="80" x="753" y="33.4883"/><text fill="#000000" font-family="sans-serif" font-size="14" lengthAdjust="spacingAndGlyphs" textLength="66" x="760" y="54.0234">Encryptor</text><rect fill="#FEFECE" filter="url(#f1)" height="30.4883" style="stroke: #A80036; stroke-width: 1.5;" width="80" x="753" y="426.5703"/><text fill="#000000" font-family="sans-serif" font-size="14" lengthAdjust="spacingAndGlyphs" textLength="66" x="760" y="447.1055">Encryptor</text><rect fill="#FFFFFF" filter="url(#f1)" height="309.2832" style="stroke: #A80036; stroke-width: 1.0;" width="10" x="363" y="99.9766"/><rect fill="#FFFFFF" filter="url(#f1)" height="29.3105" style="stroke: #A80036; stroke-width: 1.0;" width="10" x="540" y="129.2871"/><rect fill="#FFFFFF" filter="url(#f1)" height="29.3105" style="stroke: #A80036; stroke-width: 1.0;" width="10" x="790" y="292.0176"/><rect fill="#FFFFFF" filter="url(#f1)" height="29.3105" style="stroke: #A80036; stroke-width: 1.0;" width="10" x="790" y="350.6387"/><polygon fill="#A80036" points="351,95.9766,361,99.9766,351,103.9766,355,99.9766" style="stroke: #A80036; stroke-width: 1.0;"/><line style="stroke: #A80036; stroke-width: 1.0;" x1="3" x2="357" y1="99.9766" y2="99.9766"/><text fill="#000000" font-family="sans-serif" font-size="13" lengthAdjust="spacingAndGlyphs" textLength="341" x="10" y="95.5449">viewTranslation(id:String:, hexkey:String, ivhex:String)</text><polygon fill="#A80036" points="528,125.2871,538,129.2871,528,133.2871,532,129.2871" style="stroke: #A80036; stroke-width: 1.0;"/><line style="stroke: #A80036; stroke-width: 1.0;" x1="373" x2="534" y1="129.2871" y2="129.2871"/><text fill="#000000" font-family="sans-serif" font-size="13" lengthAdjust="spacingAndGlyphs" textLength="142" x="380" y="124.8555">findTranslationById(id)</text><polygon fill="#A80036" points="384,154.5977,374,158.5977,384,162.5977,380,158.5977" style="stroke: #A80036; stroke-width: 1.0;"/><line style="stroke: #A80036; stroke-width: 1.0; stroke-dasharray: 2.0,2.0;" x1="378" x2="544" y1="158.5977" y2="158.5977"/><text fill="#000000" font-family="sans-serif" font-size="13" lengthAdjust="spacingAndGlyphs" textLength="143" x="390" y="154.166">translation:Translation</text><polygon fill="#A80036" points="615,183.9082,625,187.9082,615,191.9082,619,187.9082" style="stroke: #A80036; stroke-width: 1.0;"/><line style="stroke: #A80036; stroke-width: 1.0;" x1="373" x2="621" y1="187.9082" y2="187.9082"/><text fill="#000000" font-family="sans-serif" font-size="13" lengthAdjust="spacingAndGlyphs" textLength="204" x="380" y="183.4766">new(key:byte[], algorithm:String)</text><rect fill="#FEFECE" filter="url(#f1)" height="30.4883" style="stroke: #A80036; stroke-width: 1.5;" width="112" x="627" y="166.9082"/><text fill="#000000" font-family="sans-serif" font-size="14" lengthAdjust="spacingAndGlyphs" textLength="98" x="634" y="187.4434">SecretKeySpec</text><polygon fill="#A80036" points="384,229.3965,374,233.3965,384,237.3965,380,233.3965" style="stroke: #A80036; stroke-width: 1.0;"/><line style="stroke: #A80036; stroke-width: 1.0; stroke-dasharray: 2.0,2.0;" x1="378" x2="684" y1="233.3965" y2="233.3965"/><text fill="#000000" font-family="sans-serif" font-size="13" lengthAdjust="spacingAndGlyphs" textLength="124" x="390" y="228.9648">secretKey:SecretKey</text><polygon fill="#A80036" points="783,258.707,793,262.707,783,266.707,787,262.707" style="stroke: #A80036; stroke-width: 1.0;"/><line style="stroke: #A80036; stroke-width: 1.0; stroke-dasharray: 2.0,2.0;" x1="373" x2="789" y1="262.707" y2="262.707"/><text fill="#000000" font-family="sans-serif" font-size="13" lengthAdjust="spacingAndGlyphs" textLength="111" x="380" y="258.2754">setIv(ivhex:byte[])</text><polygon fill="#A80036" points="778,288.0176,788,292.0176,778,296.0176,782,292.0176" style="stroke: #A80036; stroke-width: 1.0;"/><line style="stroke: #A80036; stroke-width: 1.0;" x1="373" x2="784" y1="292.0176" y2="292.0176"/><text fill="#000000" font-family="sans-serif" font-size="13" lengthAdjust="spacingAndGlyphs" textLength="388" x="380" y="287.5859">decrypt(translationSourceContent:String, secretKey:SecretKey)</text><polygon fill="#A80036" points="384,317.3281,374,321.3281,384,325.3281,380,321.3281" style="stroke: #A80036; stroke-width: 1.0;"/><line style="stroke: #A80036; stroke-width: 1.0; stroke-dasharray: 2.0,2.0;" x1="378" x2="794" y1="321.3281" y2="321.3281"/><text fill="#000000" font-family="sans-serif" font-size="13" lengthAdjust="spacingAndGlyphs" textLength="195" x="390" y="316.8965">decryptedSourceContent:String</text><polygon fill="#A80036" points="778,346.6387,788,350.6387,778,354.6387,782,350.6387" style="stroke: #A80036; stroke-width: 1.0;"/><line style="stroke: #A80036; stroke-width: 1.0;" x1="373" x2="784" y1="350.6387" y2="350.6387"/><text fill="#000000" font-family="sans-serif" font-size="13" lengthAdjust="spacingAndGlyphs" textLength="386" x="380" y="346.207">decrypt(translationTargetContent:String, secretKey:SecretKey)</text><polygon fill="#A80036" points="384,375.9492,374,379.9492,384,383.9492,380,379.9492" style="stroke: #A80036; stroke-width: 1.0;"/><line style="stroke: #A80036; stroke-width: 1.0; stroke-dasharray: 2.0,2.0;" x1="378" x2="794" y1="379.9492" y2="379.9492"/><text fill="#000000" font-family="sans-serif" font-size="13" lengthAdjust="spacingAndGlyphs" textLength="193" x="390" y="375.5176">decryptedTargetContent:String</text><polygon fill="#A80036" points="14,405.2598,4,409.2598,14,413.2598,10,409.2598" style="stroke: #A80036; stroke-width: 1.0;"/><line style="stroke: #A80036; stroke-width: 1.0; stroke-dasharray: 2.0,2.0;" x1="8" x2="367" y1="409.2598" y2="409.2598"/><text fill="#000000" font-family="sans-serif" font-size="13" lengthAdjust="spacingAndGlyphs" textLength="195" x="20" y="404.8281">encrypted content is decrypted</text></g></svg>