<?xml version="1.0" encoding="UTF-8" standalone="yes"?><svg xmlns="http://www.w3.org/2000/svg" xmlns:xlink="http://www.w3.org/1999/xlink" height="810px" style="width:1851px;height:810px;" version="1.1" viewBox="0 0 1851 810" width="1851px"><defs><filter height="300%" id="f1" width="300%" x="-1" y="-1"><feGaussianBlur result="blurOut" stdDeviation="2.0"/><feColorMatrix in="blurOut" result="blurOut2" type="matrix" values="0 0 0 0 0 0 0 0 0 0 0 0 0 0 0 0 0 0 .4 0"/><feOffset dx="4.0" dy="4.0" in="blurOut2" result="blurOut3"/><feBlend in="SourceGraphic" in2="blurOut3" mode="normal"/></filter></defs><g><text fill="#000000" font-family="sans-serif" font-size="14" font-weight="bold" lengthAdjust="spacingAndGlyphs" textLength="187" x="834" y="23.5352">sd01 Generate translation</text><rect fill="#FFFFFF" filter="url(#f1)" height="580.5" style="stroke: #A80036; stroke-width: 1.0;" width="10" x="21" y="126.9766"/><rect fill="#FFFFFF" filter="url(#f1)" height="530.1895" style="stroke: #A80036; stroke-width: 1.0;" width="10" x="315" y="177.2871"/><rect fill="#FFFFFF" filter="url(#f1)" height="493.8789" style="stroke: #A80036; stroke-width: 1.0;" width="10" x="772" y="177.2871"/><rect fill="#FFFFFF" filter="url(#f1)" height="87.9316" style="stroke: #A80036; stroke-width: 1.0;" width="10" x="1066" y="230.9082"/><rect fill="#FFFFFF" filter="url(#f1)" height="29.3105" style="stroke: #A80036; stroke-width: 1.0;" width="10" x="1275" y="260.2188"/><rect fill="#FFFFFF" filter="url(#f1)" height="29.3105" style="stroke: #A80036; stroke-width: 1.0;" width="10" x="1275" y="421.7266"/><rect fill="#FFFFFF" filter="url(#f1)" height="29.3105" style="stroke: #A80036; stroke-width: 1.0;" width="10" x="1275" y="583.2344"/><rect fill="#FFFFFF" filter="url(#f1)" height="87.9316" style="stroke: #A80036; stroke-width: 1.0;" width="10" x="1484" y="392.416"/><rect fill="#FFFFFF" filter="url(#f1)" height="87.9316" style="stroke: #A80036; stroke-width: 1.0;" width="10" x="1718.5" y="553.9238"/><rect fill="#FFFFFF" filter="url(#f1)" height="486.8789" style="stroke: #000000; stroke-width: 2.0;" width="1614.5" x="227.5" y="192.5977"/><rect fill="#FFFFFF" height="161.5078" style="stroke: none; stroke-width: 1.0;" width="1614.5" x="227.5" y="356.4609"/><rect fill="#FFFFFF" height="161.5078" style="stroke: none; stroke-width: 1.0;" width="1614.5" x="227.5" y="517.9688"/><line style="stroke: #A80036; stroke-width: 1.0; stroke-dasharray: 5.0,5.0;" x1="26" x2="26" y1="116.9766" y2="725.7871"/><line style="stroke: #A80036; stroke-width: 1.0; stroke-dasharray: 5.0,5.0;" x1="319.5" x2="319.5" y1="116.9766" y2="725.7871"/><line style="stroke: #A80036; stroke-width: 1.0; stroke-dasharray: 5.0,5.0;" x1="776.5" x2="776.5" y1="116.9766" y2="725.7871"/><line style="stroke: #A80036; stroke-width: 1.0; stroke-dasharray: 5.0,5.0;" x1="1070.5" x2="1070.5" y1="116.9766" y2="725.7871"/><line style="stroke: #A80036; stroke-width: 1.0; stroke-dasharray: 5.0,5.0;" x1="1279.5" x2="1279.5" y1="116.9766" y2="725.7871"/><line style="stroke: #A80036; stroke-width: 1.0; stroke-dasharray: 5.0,5.0;" x1="1489" x2="1489" y1="116.9766" y2="725.7871"/><line style="stroke: #A80036; stroke-width: 1.0; stroke-dasharray: 5.0,5.0;" x1="1723" x2="1723" y1="116.9766" y2="725.7871"/><text fill="#000000" font-family="sans-serif" font-size="14" lengthAdjust="spacingAndGlyphs" textLength="30" x="8" y="114.0234">user</text><ellipse cx="26" cy="43.4883" fill="#FEFECE" filter="url(#f1)" rx="8" ry="8" style="stroke: #A80036; stroke-width: 2.0;"/><path d="M26,51.4883 L26,78.4883 M13,59.4883 L39,59.4883 M26,78.4883 L13,93.4883 M26,78.4883 L39,93.4883 " fill="#FEFECE" filter="url(#f1)" style="stroke: #A80036; stroke-width: 2.0;"/><text fill="#000000" font-family="sans-serif" font-size="14" lengthAdjust="spacingAndGlyphs" textLength="30" x="8" y="738.3223">user</text><ellipse cx="26" cy="751.2754" fill="#FEFECE" filter="url(#f1)" rx="8" ry="8" style="stroke: #A80036; stroke-width: 2.0;"/><path d="M26,759.2754 L26,786.2754 M13,767.2754 L39,767.2754 M26,786.2754 L13,801.2754 M26,786.2754 L39,801.2754 " fill="#FEFECE" filter="url(#f1)" style="stroke: #A80036; stroke-width: 2.0;"/><rect fill="#FEFECE" filter="url(#f1)" height="30.4883" style="stroke: #A80036; stroke-width: 1.5;" width="161" x="237.5" y="81.4883"/><text fill="#000000" font-family="sans-serif" font-size="14" lengthAdjust="spacingAndGlyphs" textLength="147" x="244.5" y="102.0234">TranslationGenerator</text><rect fill="#FEFECE" filter="url(#f1)" height="30.4883" style="stroke: #A80036; stroke-width: 1.5;" width="161" x="237.5" y="724.7871"/><text fill="#000000" font-family="sans-serif" font-size="14" lengthAdjust="spacingAndGlyphs" textLength="147" x="244.5" y="745.3223">TranslationGenerator</text><rect fill="#FEFECE" filter="url(#f1)" height="30.4883" style="stroke: #A80036; stroke-width: 1.5;" width="141" x="704.5" y="81.4883"/><text fill="#000000" font-family="sans-serif" font-size="14" lengthAdjust="spacingAndGlyphs" textLength="127" x="711.5" y="102.0234">ConnectionService</text><rect fill="#FEFECE" filter="url(#f1)" height="30.4883" style="stroke: #A80036; stroke-width: 1.5;" width="141" x="704.5" y="724.7871"/><text fill="#000000" font-family="sans-serif" font-size="14" lengthAdjust="spacingAndGlyphs" textLength="127" x="711.5" y="745.3223">ConnectionService</text><rect fill="#FEFECE" filter="url(#f1)" height="30.4883" style="stroke: #A80036; stroke-width: 1.5;" width="167" x="985.5" y="81.4883"/><text fill="#000000" font-family="sans-serif" font-size="14" lengthAdjust="spacingAndGlyphs" textLength="153" x="992.5" y="102.0234">MyMemoryConnection</text><rect fill="#FEFECE" filter="url(#f1)" height="30.4883" style="stroke: #A80036; stroke-width: 1.5;" width="167" x="985.5" y="724.7871"/><text fill="#000000" font-family="sans-serif" font-size="14" lengthAdjust="spacingAndGlyphs" textLength="153" x="992.5" y="745.3223">MyMemoryConnection</text><rect fill="#FEFECE" filter="url(#f1)" height="30.4883" style="stroke: #A80036; stroke-width: 1.5;" width="93" x="1231.5" y="81.4883"/><text fill="#000000" font-family="sans-serif" font-size="14" lengthAdjust="spacingAndGlyphs" textLength="79" x="1238.5" y="102.0234">Connection</text><rect fill="#FEFECE" filter="url(#f1)" height="30.4883" style="stroke: #A80036; stroke-width: 1.5;" width="93" x="1231.5" y="724.7871"/><text fill="#000000" font-family="sans-serif" font-size="14" lengthAdjust="spacingAndGlyphs" textLength="79" x="1238.5" y="745.3223">Connection</text><rect fill="#FEFECE" filter="url(#f1)" height="30.4883" style="stroke: #A80036; stroke-width: 1.5;" width="228" x="1373" y="81.4883"/><text fill="#000000" font-family="sans-serif" font-size="14" lengthAdjust="spacingAndGlyphs" textLength="214" x="1380" y="102.0234">MicrosoftTranslatorConnection</text><rect fill="#FEFECE" filter="url(#f1)" height="30.4883" style="stroke: #A80036; stroke-width: 1.5;" width="228" x="1373" y="724.7871"/><text fill="#000000" font-family="sans-serif" font-size="14" lengthAdjust="spacingAndGlyphs" textLength="214" x="1380" y="745.3223">MicrosoftTranslatorConnection</text><rect fill="#FEFECE" filter="url(#f1)" height="30.4883" style="stroke: #A80036; stroke-width: 1.5;" width="213" x="1615" y="81.4883"/><text fill="#000000" font-family="sans-serif" font-size="14" lengthAdjust="spacingAndGlyphs" textLength="199" x="1622" y="102.0234">GoogleTranslatorConnection</text><rect fill="#FEFECE" filter="url(#f1)" height="30.4883" style="stroke: #A80036; stroke-width: 1.5;" width="213" x="1615" y="724.7871"/><text fill="#000000" font-family="sans-serif" font-size="14" lengthAdjust="spacingAndGlyphs" textLength="199" x="1622" y="745.3223">GoogleTranslatorConnection</text><rect fill="#FFFFFF" filter="url(#f1)" height="580.5" style="stroke: #A80036; stroke-width: 1.0;" width="10" x="21" y="126.9766"/><rect fill="#FFFFFF" filter="url(#f1)" height="530.1895" style="stroke: #A80036; stroke-width: 1.0;" width="10" x="315" y="177.2871"/><rect fill="#FFFFFF" filter="url(#f1)" height="493.8789" style="stroke: #A80036; stroke-width: 1.0;" width="10" x="772" y="177.2871"/><rect fill="#FFFFFF" filter="url(#f1)" height="87.9316" style="stroke: #A80036; stroke-width: 1.0;" width="10" x="1066" y="230.9082"/><rect fill="#FFFFFF" filter="url(#f1)" height="29.3105" style="stroke: #A80036; stroke-width: 1.0;" width="10" x="1275" y="260.2188"/><rect fill="#FFFFFF" filter="url(#f1)" height="29.3105" style="stroke: #A80036; stroke-width: 1.0;" width="10" x="1275" y="421.7266"/><rect fill="#FFFFFF" filter="url(#f1)" height="29.3105" style="stroke: #A80036; stroke-width: 1.0;" width="10" x="1275" y="583.2344"/><rect fill="#FFFFFF" filter="url(#f1)" height="87.9316" style="stroke: #A80036; stroke-width: 1.0;" width="10" x="1484" y="392.416"/><rect fill="#FFFFFF" filter="url(#f1)" height="87.9316" style="stroke: #A80036; stroke-width: 1.0;" width="10" x="1718.5" y="553.9238"/><polygon fill="#A80036" points="308,143.9766,318,147.9766,308,151.9766,312,147.9766" style="stroke: #A80036; stroke-width: 1.0;"/><line style="stroke: #A80036; stroke-width: 1.0;" x1="31" x2="314" y1="147.9766" y2="147.9766"/><text fill="#000000" font-family="sans-serif" font-size="13" lengthAdjust="spacingAndGlyphs" textLength="265" x="38" y="143.5449">generateTranslation(parameters:HashMap)</text><polygon fill="#A80036" points="760,173.2871,770,177.2871,760,181.2871,764,177.2871" style="stroke: #A80036; stroke-width: 1.0;"/><line style="stroke: #A80036; stroke-width: 1.0;" x1="325" x2="766" y1="177.2871" y2="177.2871"/><text fill="#000000" font-family="sans-serif" font-size="13" lengthAdjust="spacingAndGlyphs" textLength="433" x="332" y="172.8555">generateTranslation(translationProvider:String, parameters:HashMap)</text><rect fill="none" height="486.8789" style="stroke: #000000; stroke-width: 2.0;" width="1614.5" x="227.5" y="192.5977"/><polygon fill="#EEEEEE" points="227.5,192.5977,289.5,192.5977,289.5,199.5977,279.5,209.5977,227.5,209.5977,227.5,192.5977" style="stroke: #000000; stroke-width: 2.0;"/><text fill="#000000" font-family="sans-serif" font-size="13" font-weight="bold" lengthAdjust="spacingAndGlyphs" textLength="17" x="242.5" y="206.166">alt</text><text fill="#000000" font-family="sans-serif" font-size="11" font-weight="bold" lengthAdjust="spacingAndGlyphs" textLength="274" x="304.5" y="205.2324">[translationProvider = mymemory.translated.net]</text><polygon fill="#A80036" points="1054,226.9082,1064,230.9082,1054,234.9082,1058,230.9082" style="stroke: #A80036; stroke-width: 1.0;"/><line style="stroke: #A80036; stroke-width: 1.0;" x1="782" x2="1060" y1="230.9082" y2="230.9082"/><text fill="#000000" font-family="sans-serif" font-size="13" lengthAdjust="spacingAndGlyphs" textLength="265" x="789" y="226.4766">generateTranslation(parameters:HashMap)</text><polygon fill="#A80036" points="1263,256.2188,1273,260.2188,1263,264.2188,1267,260.2188" style="stroke: #A80036; stroke-width: 1.0;"/><line style="stroke: #A80036; stroke-width: 1.0;" x1="1076" x2="1269" y1="260.2188" y2="260.2188"/><text fill="#000000" font-family="sans-serif" font-size="13" lengthAdjust="spacingAndGlyphs" textLength="180" x="1083" y="255.7871">doGet(url:String, auth:String)</text><polygon fill="#A80036" points="1087,285.5293,1077,289.5293,1087,293.5293,1083,289.5293" style="stroke: #A80036; stroke-width: 1.0;"/><line style="stroke: #A80036; stroke-width: 1.0; stroke-dasharray: 2.0,2.0;" x1="1081" x2="1279" y1="289.5293" y2="289.5293"/><text fill="#000000" font-family="sans-serif" font-size="13" lengthAdjust="spacingAndGlyphs" textLength="98" x="1093" y="285.0977">response:String</text><polygon fill="#A80036" points="793,314.8398,783,318.8398,793,322.8398,789,318.8398" style="stroke: #A80036; stroke-width: 1.0;"/><line style="stroke: #A80036; stroke-width: 1.0; stroke-dasharray: 2.0,2.0;" x1="787" x2="1070" y1="318.8398" y2="318.8398"/><text fill="#000000" font-family="sans-serif" font-size="13" lengthAdjust="spacingAndGlyphs" textLength="143" x="799" y="314.4082">translation:Translation</text><polygon fill="#A80036" points="336,344.1504,326,348.1504,336,352.1504,332,348.1504" style="stroke: #A80036; stroke-width: 1.0;"/><line style="stroke: #A80036; stroke-width: 1.0; stroke-dasharray: 2.0,2.0;" x1="330" x2="771" y1="348.1504" y2="348.1504"/><text fill="#000000" font-family="sans-serif" font-size="13" lengthAdjust="spacingAndGlyphs" textLength="128" x="342" y="343.7188">targetContent:String</text><line style="stroke: #000000; stroke-width: 1.0; stroke-dasharray: 2.0,2.0;" x1="227.5" x2="1842" y1="357.4609" y2="357.4609"/><text fill="#000000" font-family="sans-serif" font-size="11" font-weight="bold" lengthAdjust="spacingAndGlyphs" textLength="249" x="232.5" y="368.0957">[translationProvider = Bing Translation API]</text><polygon fill="#A80036" points="1472,388.416,1482,392.416,1472,396.416,1476,392.416" style="stroke: #A80036; stroke-width: 1.0;"/><line style="stroke: #A80036; stroke-width: 1.0;" x1="782" x2="1478" y1="392.416" y2="392.416"/><text fill="#000000" font-family="sans-serif" font-size="13" lengthAdjust="spacingAndGlyphs" textLength="265" x="789" y="387.9844">generateTranslation(parameters:HashMap)</text><polygon fill="#A80036" points="1296,417.7266,1286,421.7266,1296,425.7266,1292,421.7266" style="stroke: #A80036; stroke-width: 1.0;"/><line style="stroke: #A80036; stroke-width: 1.0;" x1="1290" x2="1483" y1="421.7266" y2="421.7266"/><text fill="#000000" font-family="sans-serif" font-size="13" lengthAdjust="spacingAndGlyphs" textLength="180" x="1302" y="417.2949">doGet(url:String, auth:String)</text><polygon fill="#A80036" points="1472,447.0371,1482,451.0371,1472,455.0371,1476,451.0371" style="stroke: #A80036; stroke-width: 1.0;"/><line style="stroke: #A80036; stroke-width: 1.0; stroke-dasharray: 2.0,2.0;" x1="1280" x2="1478" y1="451.0371" y2="451.0371"/><text fill="#000000" font-family="sans-serif" font-size="13" lengthAdjust="spacingAndGlyphs" textLength="98" x="1287" y="446.6055">response:String</text><polygon fill="#A80036" points="793,476.3477,783,480.3477,793,484.3477,789,480.3477" style="stroke: #A80036; stroke-width: 1.0;"/><line style="stroke: #A80036; stroke-width: 1.0; stroke-dasharray: 2.0,2.0;" x1="787" x2="1488" y1="480.3477" y2="480.3477"/><text fill="#000000" font-family="sans-serif" font-size="13" lengthAdjust="spacingAndGlyphs" textLength="143" x="799" y="475.916">translation:Translation</text><polygon fill="#A80036" points="336,505.6582,326,509.6582,336,513.6582,332,509.6582" style="stroke: #A80036; stroke-width: 1.0;"/><line style="stroke: #A80036; stroke-width: 1.0; stroke-dasharray: 2.0,2.0;" x1="330" x2="771" y1="509.6582" y2="509.6582"/><text fill="#000000" font-family="sans-serif" font-size="13" lengthAdjust="spacingAndGlyphs" textLength="128" x="342" y="505.2266">targetContent:String</text><line style="stroke: #000000; stroke-width: 1.0; stroke-dasharray: 2.0,2.0;" x1="227.5" x2="1842" y1="518.9688" y2="518.9688"/><text fill="#000000" font-family="sans-serif" font-size="11" font-weight="bold" lengthAdjust="spacingAndGlyphs" textLength="263" x="232.5" y="529.6035">[translationProvider = Google Translation API]</text><polygon fill="#A80036" points="1706.5,549.9238,1716.5,553.9238,1706.5,557.9238,1710.5,553.9238" style="stroke: #A80036; stroke-width: 1.0;"/><line style="stroke: #A80036; stroke-width: 1.0;" x1="782" x2="1712.5" y1="553.9238" y2="553.9238"/><text fill="#000000" font-family="sans-serif" font-size="13" lengthAdjust="spacingAndGlyphs" textLength="265" x="789" y="549.4922">generateTranslation(parameters:HashMap)</text><polygon fill="#A80036" points="1296,579.2344,1286,583.2344,1296,587.2344,1292,583.2344" style="stroke: #A80036; stroke-width: 1.0;"/><line style="stroke: #A80036; stroke-width: 1.0;" x1="1290" x2="1717.5" y1="583.2344" y2="583.2344"/><text fill="#000000" font-family="sans-serif" font-size="13" lengthAdjust="spacingAndGlyphs" textLength="180" x="1302" y="578.8027">doGet(url:String, auth:String)</text><polygon fill="#A80036" points="1706.5,608.5449,1716.5,612.5449,1706.5,616.5449,1710.5,612.5449" style="stroke: #A80036; stroke-width: 1.0;"/><line style="stroke: #A80036; stroke-width: 1.0; stroke-dasharray: 2.0,2.0;" x1="1280" x2="1712.5" y1="612.5449" y2="612.5449"/><text fill="#000000" font-family="sans-serif" font-size="13" lengthAdjust="spacingAndGlyphs" textLength="98" x="1287" y="608.1133">response:String</text><polygon fill="#A80036" points="793,637.8555,783,641.8555,793,645.8555,789,641.8555" style="stroke: #A80036; stroke-width: 1.0;"/><line style="stroke: #A80036; stroke-width: 1.0; stroke-dasharray: 2.0,2.0;" x1="787" x2="1722.5" y1="641.8555" y2="641.8555"/><text fill="#000000" font-family="sans-serif" font-size="13" lengthAdjust="spacingAndGlyphs" textLength="143" x="799" y="637.4238">translation:Translation</text><polygon fill="#A80036" points="336,667.166,326,671.166,336,675.166,332,671.166" style="stroke: #A80036; stroke-width: 1.0;"/><line style="stroke: #A80036; stroke-width: 1.0; stroke-dasharray: 2.0,2.0;" x1="330" x2="776" y1="671.166" y2="671.166"/><text fill="#000000" font-family="sans-serif" font-size="13" lengthAdjust="spacingAndGlyphs" textLength="128" x="342" y="666.7344">targetContent:String</text><polygon fill="#A80036" points="37,703.4766,27,707.4766,37,711.4766,33,707.4766" style="stroke: #A80036; stroke-width: 1.0;"/><line style="stroke: #A80036; stroke-width: 1.0; stroke-dasharray: 2.0,2.0;" x1="31" x2="319" y1="707.4766" y2="707.4766"/><text fill="#000000" font-family="sans-serif" font-size="13" lengthAdjust="spacingAndGlyphs" textLength="130" x="43" y="703.0449">target content:String</text></g></svg>