<?xml version="1.0" encoding="UTF-8" standalone="yes"?><svg xmlns="http://www.w3.org/2000/svg" xmlns:xlink="http://www.w3.org/1999/xlink" height="909px" style="width:1355px;height:909px;" version="1.1" viewBox="0 0 1355 909" width="1355px"><defs><filter height="300%" id="f1" width="300%" x="-1" y="-1"><feGaussianBlur result="blurOut" stdDeviation="2.0"/><feColorMatrix in="blurOut" result="blurOut2" type="matrix" values="0 0 0 0 0 0 0 0 0 0 0 0 0 0 0 0 0 0 .4 0"/><feOffset dx="4.0" dy="4.0" in="blurOut2" result="blurOut3"/><feBlend in="SourceGraphic" in2="blurOut3" mode="normal"/></filter></defs><g><text fill="#000000" font-family="sans-serif" font-size="14" font-weight="bold" lengthAdjust="spacingAndGlyphs" textLength="174" x="592.25" y="23.5352">sd02 generate QR-Code</text><rect fill="#FFFFFF" filter="url(#f1)" height="679.9453" style="stroke: #A80036; stroke-width: 1.0;" width="10" x="21" y="126.9766"/><rect fill="#FFFFFF" filter="url(#f1)" height="71.6211" style="stroke: #A80036; stroke-width: 1.0;" width="10" x="305" y="354.3965"/><rect fill="#FFFFFF" filter="url(#f1)" height="322.2832" style="stroke: #A80036; stroke-width: 1.0;" width="10" x="305" y="455.3281"/><rect fill="#FFFFFF" filter="url(#f1)" height="28" style="stroke: #A80036; stroke-width: 1.0;" width="10" x="585" y="230.7754"/><rect fill="#FFFFFF" filter="url(#f1)" height="30" style="stroke: #A80036; stroke-width: 1.0;" width="10" x="585" y="295.0859"/><rect fill="#FFFFFF" filter="url(#f1)" height="71.6211" style="stroke: #A80036; stroke-width: 1.0;" width="10" x="585" y="354.3965"/><rect fill="#FFFFFF" filter="url(#f1)" height="71.6211" style="stroke: #A80036; stroke-width: 1.0;" width="10" x="585" y="455.3281"/><rect fill="#FFFFFF" filter="url(#f1)" height="87.9316" style="stroke: #A80036; stroke-width: 1.0;" width="10" x="910.5" y="631.0586"/><rect fill="#FFFFFF" filter="url(#f1)" height="29.3105" style="stroke: #A80036; stroke-width: 1.0;" width="10" x="1114.5" y="660.3691"/><rect fill="#FFFFFF" filter="url(#f1)" height="29.3105" style="stroke: #A80036; stroke-width: 1.0;" width="10" x="1278.5" y="748.3008"/><rect fill="#FEFECE" filter="url(#f1)" height="30.4883" style="stroke: #A80036; stroke-width: 1.5;" width="80" x="548" y="156.2871"/><text fill="#000000" font-family="sans-serif" font-size="14" lengthAdjust="spacingAndGlyphs" textLength="66" x="555" y="176.8223">Encryptor</text><rect fill="#FEFECE" filter="url(#f1)" height="30.4883" style="stroke: #A80036; stroke-width: 1.5;" width="92" x="737" y="535.2598"/><text fill="#000000" font-family="sans-serif" font-size="14" lengthAdjust="spacingAndGlyphs" textLength="78" x="744" y="555.7949">Translation</text><line style="stroke: #A80036; stroke-width: 1.0; stroke-dasharray: 5.0,5.0;" x1="26" x2="26" y1="116.9766" y2="825.2324"/><line style="stroke: #A80036; stroke-width: 1.0; stroke-dasharray: 5.0,5.0;" x1="309.5" x2="309.5" y1="116.9766" y2="825.2324"/><line style="stroke: #A80036; stroke-width: 1.0; stroke-dasharray: 5.0,5.0;" x1="590" x2="590" y1="189.0313" y2="825.2324"/><line style="stroke: #A80036; stroke-width: 1.0; stroke-dasharray: 5.0,5.0;" x1="785" x2="785" y1="568.0039" y2="825.2324"/><line style="stroke: #A80036; stroke-width: 1.0; stroke-dasharray: 5.0,5.0;" x1="915" x2="915" y1="116.9766" y2="825.2324"/><line style="stroke: #A80036; stroke-width: 1.0; stroke-dasharray: 5.0,5.0;" x1="1119.5" x2="1119.5" y1="116.9766" y2="825.2324"/><line style="stroke: #A80036; stroke-width: 1.0; stroke-dasharray: 5.0,5.0;" x1="1283.5" x2="1283.5" y1="116.9766" y2="825.2324"/><text fill="#000000" font-family="sans-serif" font-size="14" lengthAdjust="spacingAndGlyphs" textLength="30" x="8" y="114.0234">user</text><ellipse cx="26" cy="43.4883" fill="#FEFECE" filter="url(#f1)" rx="8" ry="8" style="stroke: #A80036; stroke-width: 2.0;"/><path d="M26,51.4883 L26,78.4883 M13,59.4883 L39,59.4883 M26,78.4883 L13,93.4883 M26,78.4883 L39,93.4883 " fill="#FEFECE" filter="url(#f1)" style="stroke: #A80036; stroke-width: 2.0;"/><text fill="#000000" font-family="sans-serif" font-size="14" lengthAdjust="spacingAndGlyphs" textLength="30" x="8" y="837.7676">user</text><ellipse cx="26" cy="850.7207" fill="#FEFECE" filter="url(#f1)" rx="8" ry="8" style="stroke: #A80036; stroke-width: 2.0;"/><path d="M26,858.7207 L26,885.7207 M13,866.7207 L39,866.7207 M26,885.7207 L13,900.7207 M26,885.7207 L39,900.7207 " fill="#FEFECE" filter="url(#f1)" style="stroke: #A80036; stroke-width: 2.0;"/><rect fill="#FEFECE" filter="url(#f1)" height="30.4883" style="stroke: #A80036; stroke-width: 1.5;" width="99" x="258.5" y="81.4883"/><text fill="#000000" font-family="sans-serif" font-size="14" lengthAdjust="spacingAndGlyphs" textLength="85" x="265.5" y="102.0234">HomeLayout</text><rect fill="#FEFECE" filter="url(#f1)" height="30.4883" style="stroke: #A80036; stroke-width: 1.5;" width="99" x="258.5" y="824.2324"/><text fill="#000000" font-family="sans-serif" font-size="14" lengthAdjust="spacingAndGlyphs" textLength="85" x="265.5" y="844.7676">HomeLayout</text><rect fill="#FEFECE" filter="url(#f1)" height="30.4883" style="stroke: #A80036; stroke-width: 1.5;" width="80" x="548" y="824.2324"/><text fill="#000000" font-family="sans-serif" font-size="14" lengthAdjust="spacingAndGlyphs" textLength="66" x="555" y="844.7676">Encryptor</text><rect fill="#FEFECE" filter="url(#f1)" height="30.4883" style="stroke: #A80036; stroke-width: 1.5;" width="92" x="737" y="824.2324"/><text fill="#000000" font-family="sans-serif" font-size="14" lengthAdjust="spacingAndGlyphs" textLength="78" x="744" y="844.7676">Translation</text><rect fill="#FEFECE" filter="url(#f1)" height="30.4883" style="stroke: #A80036; stroke-width: 1.5;" width="141" x="843" y="81.4883"/><text fill="#000000" font-family="sans-serif" font-size="14" lengthAdjust="spacingAndGlyphs" textLength="127" x="850" y="102.0234">ConnectionService</text><rect fill="#FEFECE" filter="url(#f1)" height="30.4883" style="stroke: #A80036; stroke-width: 1.5;" width="141" x="843" y="824.2324"/><text fill="#000000" font-family="sans-serif" font-size="14" lengthAdjust="spacingAndGlyphs" textLength="127" x="850" y="844.7676">ConnectionService</text><rect fill="#FEFECE" filter="url(#f1)" height="30.4883" style="stroke: #A80036; stroke-width: 1.5;" width="170" x="1032.5" y="81.4883"/><text fill="#000000" font-family="sans-serif" font-size="14" lengthAdjust="spacingAndGlyphs" textLength="156" x="1039.5" y="102.0234">RestServiceConnection</text><rect fill="#FEFECE" filter="url(#f1)" height="30.4883" style="stroke: #A80036; stroke-width: 1.5;" width="170" x="1032.5" y="824.2324"/><text fill="#000000" font-family="sans-serif" font-size="14" lengthAdjust="spacingAndGlyphs" textLength="156" x="1039.5" y="844.7676">RestServiceConnection</text><rect fill="#FEFECE" filter="url(#f1)" height="30.4883" style="stroke: #A80036; stroke-width: 1.5;" width="130" x="1216.5" y="81.4883"/><text fill="#000000" font-family="sans-serif" font-size="14" lengthAdjust="spacingAndGlyphs" textLength="116" x="1223.5" y="102.0234">QRCodeManager</text><rect fill="#FEFECE" filter="url(#f1)" height="30.4883" style="stroke: #A80036; stroke-width: 1.5;" width="130" x="1216.5" y="824.2324"/><text fill="#000000" font-family="sans-serif" font-size="14" lengthAdjust="spacingAndGlyphs" textLength="116" x="1223.5" y="844.7676">QRCodeManager</text><rect fill="#FFFFFF" filter="url(#f1)" height="679.9453" style="stroke: #A80036; stroke-width: 1.0;" width="10" x="21" y="126.9766"/><rect fill="#FFFFFF" filter="url(#f1)" height="71.6211" style="stroke: #A80036; stroke-width: 1.0;" width="10" x="305" y="354.3965"/><rect fill="#FFFFFF" filter="url(#f1)" height="322.2832" style="stroke: #A80036; stroke-width: 1.0;" width="10" x="305" y="455.3281"/><rect fill="#FFFFFF" filter="url(#f1)" height="28" style="stroke: #A80036; stroke-width: 1.0;" width="10" x="585" y="230.7754"/><rect fill="#FFFFFF" filter="url(#f1)" height="30" style="stroke: #A80036; stroke-width: 1.0;" width="10" x="585" y="295.0859"/><rect fill="#FFFFFF" filter="url(#f1)" height="71.6211" style="stroke: #A80036; stroke-width: 1.0;" width="10" x="585" y="354.3965"/><rect fill="#FFFFFF" filter="url(#f1)" height="71.6211" style="stroke: #A80036; stroke-width: 1.0;" width="10" x="585" y="455.3281"/><rect fill="#FFFFFF" filter="url(#f1)" height="87.9316" style="stroke: #A80036; stroke-width: 1.0;" width="10" x="910.5" y="631.0586"/><rect fill="#FFFFFF" filter="url(#f1)" height="29.3105" style="stroke: #A80036; stroke-width: 1.0;" width="10" x="1114.5" y="660.3691"/><rect fill="#FFFFFF" filter="url(#f1)" height="29.3105" style="stroke: #A80036; stroke-width: 1.0;" width="10" x="1278.5" y="748.3008"/><polygon fill="#A80036" points="298,143.9766,308,147.9766,298,151.9766,302,147.9766" style="stroke: #A80036; stroke-width: 1.0;"/><line style="stroke: #A80036; stroke-width: 1.0;" x1="31" x2="304" y1="147.9766" y2="147.9766"/><text fill="#000000" font-family="sans-serif" font-size="13" lengthAdjust="spacingAndGlyphs" textLength="255" x="38" y="143.5449">generateQRCode(translation:Translation)</text><polygon fill="#A80036" points="536,173.2871,546,177.2871,536,181.2871,540,177.2871" style="stroke: #A80036; stroke-width: 1.0;"/><line style="stroke: #A80036; stroke-width: 1.0;" x1="310" x2="542" y1="177.2871" y2="177.2871"/><text fill="#000000" font-family="sans-serif" font-size="13" lengthAdjust="spacingAndGlyphs" textLength="25" x="317" y="172.8555">new</text><rect fill="#FEFECE" filter="url(#f1)" height="30.4883" style="stroke: #A80036; stroke-width: 1.5;" width="80" x="548" y="156.2871"/><text fill="#000000" font-family="sans-serif" font-size="14" lengthAdjust="spacingAndGlyphs" textLength="66" x="555" y="176.8223">Encryptor</text><line style="stroke: #A80036; stroke-width: 1.0;" x1="595" x2="637" y1="223.0859" y2="223.0859"/><line style="stroke: #A80036; stroke-width: 1.0;" x1="637" x2="637" y1="223.0859" y2="236.0859"/><line style="stroke: #A80036; stroke-width: 1.0;" x1="596" x2="637" y1="236.0859" y2="236.0859"/><polygon fill="#A80036" points="606,232.0859,596,236.0859,606,240.0859,602,236.0859" style="stroke: #A80036; stroke-width: 1.0;"/><text fill="#000000" font-family="sans-serif" font-size="13" lengthAdjust="spacingAndGlyphs" textLength="181" x="602" y="218.3438">generateInitializationVector()</text><polygon fill="#A80036" points="573,291.0859,583,295.0859,573,299.0859,577,295.0859" style="stroke: #A80036; stroke-width: 1.0;"/><line style="stroke: #A80036; stroke-width: 1.0; stroke-dasharray: 2.0,2.0;" x1="310" x2="579" y1="295.0859" y2="295.0859"/><text fill="#000000" font-family="sans-serif" font-size="13" lengthAdjust="spacingAndGlyphs" textLength="122" x="317" y="290.6543">generateSecretKey()</text><polygon fill="#A80036" points="573,350.3965,583,354.3965,573,358.3965,577,354.3965" style="stroke: #A80036; stroke-width: 1.0;"/><line style="stroke: #A80036; stroke-width: 1.0;" x1="315" x2="579" y1="354.3965" y2="354.3965"/><text fill="#000000" font-family="sans-serif" font-size="13" lengthAdjust="spacingAndGlyphs" textLength="256" x="322" y="349.9648">encrypt(translationSourceContent:String)</text><line style="stroke: #A80036; stroke-width: 1.0;" x1="595" x2="637" y1="384.0176" y2="384.0176"/><line style="stroke: #A80036; stroke-width: 1.0;" x1="637" x2="637" y1="384.0176" y2="397.0176"/><line style="stroke: #A80036; stroke-width: 1.0;" x1="596" x2="637" y1="397.0176" y2="397.0176"/><polygon fill="#A80036" points="606,393.0176,596,397.0176,606,401.0176,602,397.0176" style="stroke: #A80036; stroke-width: 1.0;"/><text fill="#000000" font-family="sans-serif" font-size="13" lengthAdjust="spacingAndGlyphs" textLength="87" x="602" y="379.2754">createCipher()</text><polygon fill="#A80036" points="321,422.0176,311,426.0176,321,430.0176,317,426.0176" style="stroke: #A80036; stroke-width: 1.0;"/><line style="stroke: #A80036; stroke-width: 1.0; stroke-dasharray: 2.0,2.0;" x1="315" x2="589" y1="426.0176" y2="426.0176"/><text fill="#000000" font-family="sans-serif" font-size="13" lengthAdjust="spacingAndGlyphs" textLength="195" x="327" y="421.5859">encryptedSourceContent:String</text><polygon fill="#A80036" points="573,451.3281,583,455.3281,573,459.3281,577,455.3281" style="stroke: #A80036; stroke-width: 1.0;"/><line style="stroke: #A80036; stroke-width: 1.0;" x1="315" x2="579" y1="455.3281" y2="455.3281"/><text fill="#000000" font-family="sans-serif" font-size="13" lengthAdjust="spacingAndGlyphs" textLength="254" x="322" y="450.8965">encrypt(translationTargetContent:String)</text><line style="stroke: #A80036; stroke-width: 1.0;" x1="595" x2="637" y1="484.9492" y2="484.9492"/><line style="stroke: #A80036; stroke-width: 1.0;" x1="637" x2="637" y1="484.9492" y2="497.9492"/><line style="stroke: #A80036; stroke-width: 1.0;" x1="596" x2="637" y1="497.9492" y2="497.9492"/><polygon fill="#A80036" points="606,493.9492,596,497.9492,606,501.9492,602,497.9492" style="stroke: #A80036; stroke-width: 1.0;"/><text fill="#000000" font-family="sans-serif" font-size="13" lengthAdjust="spacingAndGlyphs" textLength="87" x="602" y="480.207">createCipher()</text><polygon fill="#A80036" points="326,522.9492,316,526.9492,326,530.9492,322,526.9492" style="stroke: #A80036; stroke-width: 1.0;"/><line style="stroke: #A80036; stroke-width: 1.0; stroke-dasharray: 2.0,2.0;" x1="320" x2="589" y1="526.9492" y2="526.9492"/><text fill="#000000" font-family="sans-serif" font-size="13" lengthAdjust="spacingAndGlyphs" textLength="193" x="332" y="522.5176">encryptedTargetContent:String</text><polygon fill="#A80036" points="725,552.2598,735,556.2598,725,560.2598,729,556.2598" style="stroke: #A80036; stroke-width: 1.0;"/><line style="stroke: #A80036; stroke-width: 1.0;" x1="315" x2="731" y1="556.2598" y2="556.2598"/><text fill="#000000" font-family="sans-serif" font-size="13" lengthAdjust="spacingAndGlyphs" textLength="25" x="322" y="551.8281">new</text><rect fill="#FEFECE" filter="url(#f1)" height="30.4883" style="stroke: #A80036; stroke-width: 1.5;" width="92" x="737" y="535.2598"/><text fill="#000000" font-family="sans-serif" font-size="14" lengthAdjust="spacingAndGlyphs" textLength="78" x="744" y="555.7949">Translation</text><polygon fill="#A80036" points="326,597.748,316,601.748,326,605.748,322,601.748" style="stroke: #A80036; stroke-width: 1.0;"/><line style="stroke: #A80036; stroke-width: 1.0; stroke-dasharray: 2.0,2.0;" x1="320" x2="784" y1="601.748" y2="601.748"/><text fill="#000000" font-family="sans-serif" font-size="13" lengthAdjust="spacingAndGlyphs" textLength="300" x="332" y="597.3164">translation:Translation (with encrypted content)</text><polygon fill="#A80036" points="898.5,627.0586,908.5,631.0586,898.5,635.0586,902.5,631.0586" style="stroke: #A80036; stroke-width: 1.0;"/><line style="stroke: #A80036; stroke-width: 1.0;" x1="315" x2="904.5" y1="631.0586" y2="631.0586"/><text fill="#000000" font-family="sans-serif" font-size="13" lengthAdjust="spacingAndGlyphs" textLength="175" x="322" y="626.627">postTranslation(translation)</text><polygon fill="#A80036" points="1102.5,656.3691,1112.5,660.3691,1102.5,664.3691,1106.5,660.3691" style="stroke: #A80036; stroke-width: 1.0;"/><line style="stroke: #A80036; stroke-width: 1.0;" x1="920.5" x2="1108.5" y1="660.3691" y2="660.3691"/><text fill="#000000" font-family="sans-serif" font-size="13" lengthAdjust="spacingAndGlyphs" textLength="175" x="927.5" y="655.9375">postTranslation(translation)</text><polygon fill="#A80036" points="931.5,685.6797,921.5,689.6797,931.5,693.6797,927.5,689.6797" style="stroke: #A80036; stroke-width: 1.0;"/><line style="stroke: #A80036; stroke-width: 1.0; stroke-dasharray: 2.0,2.0;" x1="925.5" x2="1118.5" y1="689.6797" y2="689.6797"/><text fill="#000000" font-family="sans-serif" font-size="13" lengthAdjust="spacingAndGlyphs" textLength="98" x="937.5" y="685.248">response:String</text><polygon fill="#A80036" points="326,714.9902,316,718.9902,326,722.9902,322,718.9902" style="stroke: #A80036; stroke-width: 1.0;"/><line style="stroke: #A80036; stroke-width: 1.0; stroke-dasharray: 2.0,2.0;" x1="320" x2="914.5" y1="718.9902" y2="718.9902"/><text fill="#000000" font-family="sans-serif" font-size="13" lengthAdjust="spacingAndGlyphs" textLength="165" x="332" y="714.5586">new Translation(response)</text><polygon fill="#A80036" points="1266.5,744.3008,1276.5,748.3008,1266.5,752.3008,1270.5,748.3008" style="stroke: #A80036; stroke-width: 1.0;"/><line style="stroke: #A80036; stroke-width: 1.0;" x1="315" x2="1272.5" y1="748.3008" y2="748.3008"/><text fill="#000000" font-family="sans-serif" font-size="13" lengthAdjust="spacingAndGlyphs" textLength="303" x="322" y="743.8691">generateQRCode(url:String, width:int, height:int)</text><polygon fill="#A80036" points="321,773.6113,311,777.6113,321,781.6113,317,777.6113" style="stroke: #A80036; stroke-width: 1.0;"/><line style="stroke: #A80036; stroke-width: 1.0; stroke-dasharray: 2.0,2.0;" x1="315" x2="1282.5" y1="777.6113" y2="777.6113"/><text fill="#000000" font-family="sans-serif" font-size="13" lengthAdjust="spacingAndGlyphs" textLength="127" x="327" y="773.1797">new BufferedImage()</text><polygon fill="#A80036" points="37,802.9219,27,806.9219,37,810.9219,33,806.9219" style="stroke: #A80036; stroke-width: 1.0;"/><line style="stroke: #A80036; stroke-width: 1.0; stroke-dasharray: 2.0,2.0;" x1="31" x2="309" y1="806.9219" y2="806.9219"/><text fill="#000000" font-family="sans-serif" font-size="13" lengthAdjust="spacingAndGlyphs" textLength="116" x="43" y="802.4902">QRCode generated</text></g></svg>