<?xml version="1.0" encoding="UTF-8" standalone="yes"?><svg xmlns="http://www.w3.org/2000/svg" xmlns:xlink="http://www.w3.org/1999/xlink" height="359px" style="width:405px;height:359px;" version="1.1" viewBox="0 0 405 359" width="405px"><defs><filter height="300%" id="f1" width="300%" x="-1" y="-1"><feGaussianBlur result="blurOut" stdDeviation="2.0"/><feColorMatrix in="blurOut" result="blurOut2" type="matrix" values="0 0 0 0 0 0 0 0 0 0 0 0 0 0 0 0 0 0 .4 0"/><feOffset dx="4.0" dy="4.0" in="blurOut2" result="blurOut3"/><feBlend in="SourceGraphic" in2="blurOut3" mode="normal"/></filter></defs><g><text fill="#000000" font-family="sans-serif" font-size="14" font-weight="bold" lengthAdjust="spacingAndGlyphs" textLength="220" x="97" y="23.5352">sd03 encrypt text (client-side)</text><rect fill="#FFFFFF" filter="url(#f1)" height="28" style="stroke: #A80036; stroke-width: 1.0;" width="10" x="206" y="137.2871"/><rect fill="#FFFFFF" filter="url(#f1)" height="71.6211" style="stroke: #A80036; stroke-width: 1.0;" width="10" x="206" y="230.9082"/><line style="stroke: #A80036; stroke-width: 1.0; stroke-dasharray: 5.0,5.0;" x1="211" x2="211" y1="68.9766" y2="320.8398"/><rect fill="#FEFECE" filter="url(#f1)" height="30.4883" style="stroke: #A80036; stroke-width: 1.5;" width="80" x="169" y="33.4883"/><text fill="#000000" font-family="sans-serif" font-size="14" lengthAdjust="spacingAndGlyphs" textLength="66" x="176" y="54.0234">Encryptor</text><rect fill="#FEFECE" filter="url(#f1)" height="30.4883" style="stroke: #A80036; stroke-width: 1.5;" width="80" x="169" y="319.8398"/><text fill="#000000" font-family="sans-serif" font-size="14" lengthAdjust="spacingAndGlyphs" textLength="66" x="176" y="340.375">Encryptor</text><rect fill="#FFFFFF" filter="url(#f1)" height="28" style="stroke: #A80036; stroke-width: 1.0;" width="10" x="206" y="137.2871"/><rect fill="#FFFFFF" filter="url(#f1)" height="71.6211" style="stroke: #A80036; stroke-width: 1.0;" width="10" x="206" y="230.9082"/><polygon fill="#A80036" points="199,95.9766,209,99.9766,199,103.9766,203,99.9766" style="stroke: #A80036; stroke-width: 1.0;"/><line style="stroke: #A80036; stroke-width: 1.0;" x1="3" x2="205" y1="99.9766" y2="99.9766"/><text fill="#000000" font-family="sans-serif" font-size="13" lengthAdjust="spacingAndGlyphs" textLength="29" x="10" y="95.5449">:new</text><line style="stroke: #A80036; stroke-width: 1.0;" x1="216" x2="258" y1="129.5977" y2="129.5977"/><line style="stroke: #A80036; stroke-width: 1.0;" x1="258" x2="258" y1="129.5977" y2="142.5977"/><line style="stroke: #A80036; stroke-width: 1.0;" x1="217" x2="258" y1="142.5977" y2="142.5977"/><polygon fill="#A80036" points="227,138.5977,217,142.5977,227,146.5977,223,142.5977" style="stroke: #A80036; stroke-width: 1.0;"/><text fill="#000000" font-family="sans-serif" font-size="13" lengthAdjust="spacingAndGlyphs" textLength="181" x="223" y="124.8555">generateInitializationVector()</text><polygon fill="#A80036" points="199,197.5977,209,201.5977,199,205.5977,203,201.5977" style="stroke: #A80036; stroke-width: 1.0;"/><line style="stroke: #A80036; stroke-width: 1.0; stroke-dasharray: 2.0,2.0;" x1="3" x2="205" y1="201.5977" y2="201.5977"/><text fill="#000000" font-family="sans-serif" font-size="13" lengthAdjust="spacingAndGlyphs" textLength="122" x="10" y="197.166">generateSecretKey()</text><polygon fill="#A80036" points="194,226.9082,204,230.9082,194,234.9082,198,230.9082" style="stroke: #A80036; stroke-width: 1.0;"/><line style="stroke: #A80036; stroke-width: 1.0;" x1="3" x2="200" y1="230.9082" y2="230.9082"/><text fill="#000000" font-family="sans-serif" font-size="13" lengthAdjust="spacingAndGlyphs" textLength="184" x="10" y="226.4766">encrypt(textToEncrypt:String)</text><line style="stroke: #A80036; stroke-width: 1.0;" x1="216" x2="258" y1="260.5293" y2="260.5293"/><line style="stroke: #A80036; stroke-width: 1.0;" x1="258" x2="258" y1="260.5293" y2="273.5293"/><line style="stroke: #A80036; stroke-width: 1.0;" x1="217" x2="258" y1="273.5293" y2="273.5293"/><polygon fill="#A80036" points="227,269.5293,217,273.5293,227,277.5293,223,273.5293" style="stroke: #A80036; stroke-width: 1.0;"/><text fill="#000000" font-family="sans-serif" font-size="13" lengthAdjust="spacingAndGlyphs" textLength="87" x="223" y="255.7871">createCipher()</text><polygon fill="#A80036" points="14,298.5293,4,302.5293,14,306.5293,10,302.5293" style="stroke: #A80036; stroke-width: 1.0;"/><line style="stroke: #A80036; stroke-width: 1.0; stroke-dasharray: 2.0,2.0;" x1="8" x2="210" y1="302.5293" y2="302.5293"/><text fill="#000000" font-family="sans-serif" font-size="13" lengthAdjust="spacingAndGlyphs" textLength="131" x="20" y="298.0977">encryptedText:String</text></g></svg>